# xmcd
#
# Track frame offsets: 
#        150
#        13987
#        32755
#        48102
#        59997
#        71697
#        96992
#        113160
#        123250
#        136632
#        148970
#        166737
#        183720
#        194930
#
# Disc length: 2764 seconds
#
# Revision: 1
# Processed by: cddbd v1.5.2PL0 Copyright (c) Steve Scherf et al.
# Submitted via: ExactAudioCopy v0.99pb4
#
DISCID=d90aca0e
DTITLE=Fender Freddy - Hits and More CD3
DYEAR=1990
DGENRE=Country
TTITLE0=The Rains Came
TTITLE1=Secret Love
TTITLE2=Cielito Lindo
TTITLE3=Walking Piece Of Heaven
TTITLE4=La Mucura
TTITLE5=I Got A Woman
TTITLE6=Mentiras
TTITLE7=Sugar Coated Love
TTITLE8=Ranco Grande
TTITLE9=Tell It Like It Is
TTITLE10=Blueberry Hill
TTITLE11=I Just Called To Say I Love You
TTITLE12=Como Quieres
TTITLE13=Next Time You See Me
EXTD=
EXTT0=
EXTT1=
EXTT2=
EXTT3=
EXTT4=
EXTT5=
EXTT6=
EXTT7=
EXTT8=
EXTT9=
EXTT10=
EXTT11=
EXTT12=
EXTT13=
PLAYORDER=
